:SAMPLES-PER-SECOND 30
:FULLY-SPECIFIED
:DEGREES
359
root  -7.99406 34.592 -22.269 -175.524 69.7142 177.66
RightUpLeg  -12.4852 -32.0685 -8.70233
RightLeg  11.476 -3.08134 -0.42037
RightFoot  15.4097 0.153649 -0.621547
RightToes  -34.2994 -0.175964 -0.2812
Spine  -0.159104 4.02277 -3.15174
Spine1  -0.638172 8.20953 -5.61351
HEad  -30.0475 -17.8948 -5.39513
LeftShoulder1  -1.94126e-019 -3.10601e-018 -2.51263e-017
LeftArm  -11.5259 16.2803 -77.2241
LeftForeArm  27.8514 -19.3202 -3.11125
LeftHand  -0.375172 -0.740789 7.2223
RightShoulder  -4.96962e-017 0 -2.36833e-017
RightArm  -4.52307 9.25637 93.4156
RightForeArm  27.1558 37.0046 6.77439
RightHand  2.92126 -14.6997 -34.9576
LeftUpLeg  -9.84537 -4.14115 -5.41553
LeftLeg  8.28997 14.0791 1.12212
LeftFoot  1.89591 -0.0103694 0.659443
LeftToes  -7.82072 1.46665e-006 1.03344e-007
360
root  -7.9226 34.6085 -22.2548 -175.118 69.358 178.15
RightUpLeg  -12.0573 -32.4549 -8.6489
RightLeg  11.234 -2.86814 -0.378901
RightFoot  15.5072 0.149392 -0.570006
RightToes  -34.595 -0.176809 -0.282098
Spine  -0.247791 4.54055 -3.14889
Spine1  -0.825733 9.24038 -5.61172
HEad  -29.7305 -21.8102 -2.94438
LeftShoulder1  -1.94126e-019 -3.10601e-018 -2.51263e-017
LeftArm  -10.9071 16.5606 -77.3732
LeftForeArm  27.998 -19.2103 -3.15029
LeftHand  -0.373616 -0.879211 7.04557
RightShoulder  -4.96962e-017 0 -2.36833e-017
RightArm  1.7306 13.467 96.8922
RightForeArm  32.6589 32.6591 5.33329
RightHand  1.49679 -13.1445 -22.3283
LeftUpLeg  -9.67014 -4.55991 -5.1948
LeftLeg  8.23702 14.2213 1.12016
LeftFoot  1.77328 -0.00907411 0.634538
LeftToes  -8.17518 1.46665e-006 1.03344e-007
361
root  -7.82919 34.6153 -22.2594 -174.544 68.7796 178.775
RightUpLeg  -11.5624 -32.8717 -8.60566
RightLeg  11.0414 -2.79529 -0.359683
RightFoot  15.4945 0.146429 -0.530164
RightToes  -34.6274 -0.17705 -0.282807
Spine  -0.284252 5.00073 -3.0952
Spine1  -0.942645 10.2181 -5.52853
HEad  -30.0424 -25.7612 -0.249378
LeftShoulder1  -1.94126e-019 -3.10601e-018 -2.51263e-017
LeftArm  -10.8761 17.0309 -77.6155
LeftForeArm  28.1201 -19.0317 -3.16287
LeftHand  -0.365573 -0.859652 6.91604
RightShoulder  -4.96962e-017 0 -2.36833e-017
RightArm  9.69503 14.9369 98.4091
RightForeArm  23.1005 35.2793 6.54591
RightHand  -0.0192658 -5.52746 -5.07352
LeftUpLeg  -9.6689 -5.03803 -4.93572
LeftLeg  8.51463 14.1887 1.18608
LeftFoot  1.57376 -0.00679816 0.592139
LeftToes  -8.19924 1.46665e-006 1.03344e-007
362
root  -7.73318 34.6137 -22.2931 -174.122 68.0615 179.231
RightUpLeg  -11.0284 -33.3981 -8.67248
RightLeg  10.8633 -2.83306 -0.355581
RightFoot  15.5421 0.146775 -0.525922
RightToes  -34.9791 -0.179071 -0.283402
Spine  -0.267544 5.281 -2.97455
Spine1  -0.916548 10.8197 -5.27737
HEad  -31.0079 -28.9129 2.10465
LeftShoulder1  -1.94126e-019 -3.10601e-018 -2.51263e-017
LeftArm  -10.6045 17.8186 -77.7372
LeftForeArm  27.8854 -18.8612 -3.13917
LeftHand  -0.360316 -0.848779 6.82899
RightShoulder  -4.96962e-017 0 -2.36833e-017
RightArm  20.9488 15.3264 100.184
RightForeArm  32.3994 43.3886 8.35365
RightHand  -0.0282313 -2.7739 -0.597024
LeftUpLeg  -9.74083 -5.55165 -4.76042
LeftLeg  8.96009 14.03 1.2818
LeftFoot  1.2656 -0.00278706 0.520788
LeftToes  -8.07789 1.46665e-006 1.03344e-007
363
root  -7.64126 34.6133 -22.3488 -173.954 67.1338 179.425
RightUpLeg  -10.4441 -34.1184 -8.89297
RightLeg  10.7358 -2.9284 -0.360928
RightFoot  15.6063 0.150488 -0.548125
RightToes  -35.2464 -0.181914 -0.284006
Spine  -0.299784 5.38578 -2.87894
Spine1  -0.960829 11.0355 -5.05883
HEad  -32.0054 -31.1958 3.98444
LeftShoulder1  -1.94126e-019 -3.10601e-018 -2.51263e-017
LeftArm  -10.5921 18.878 -77.6102
LeftForeArm  28.1729 -18.6351 -3.10535
LeftHand  -0.355936 -0.869912 6.72623
RightShoulder  -4.96962e-017 0 -2.36833e-017
RightArm  30.8853 15.1984 102.157
RightForeArm  42.1679 50.9903 10.5261
RightHand  -0.116535 -2.24275 -3.92431
LeftUpLeg  -9.75647 -6.00928 -4.70122
LeftLeg  9.2964 13.6056 1.32348
LeftFoot  1.16238 -0.00169393 0.493069
LeftToes  -8.32081 1.46665e-006 1.03344e-007
364
root  -7.56746 34.6093 -22.4223 -173.922 66.2675 179.364
RightUpLeg  -10.1569 -34.5039 -9.17515
RightLeg  10.9165 -3.30624 -0.418148
RightFoot  15.6275 0.164199 -0.644543
RightToes  -35.7605 -0.184759 -0.284614
Spine  -0.357712 5.40413 -2.76358
Spine1  -1.04949 11.0757 -4.79764
HEad  -33.1071 -32.6181 5.30608
LeftShoulder1  -1.94126e-019 -3.10601e-018 -2.51263e-017
LeftArm  -10.9534 20.0374 -77.5334
LeftForeArm  28.4362 -18.0434 -3.01411
LeftHand  -0.351617 -0.695973 6.8206
RightShoulder  -4.96962e-017 0 -2.36833e-017
RightArm  38.0977 14.8577 104.326
RightForeArm  46.8084 56.019 12.5962
RightHand  -0.204946 -1.75768 -6.33729
LeftUpLeg  -9.83502 -6.53239 -4.76163
LeftLeg  9.51902 13.3143 1.34737
LeftFoot  1.13922 -0.00219138 0.488619
LeftToes  -8.18811 1.46665e-006 1.03344e-007
